<svg xmlns="http://www.w3.org/2000/svg" viewBox="0 0 24 24" width="24" height="24"><path d="M23.6,11c-0.2-0.2-0.5-0.2-0.7,0l-0.8,0.8c-0.1-4.3-2.7-8.2-6.7-9.8C11.3,0.2,6.6,1.1,3.5,4.3c-3.1,3.1-4.1,7.8-2.4,11.9s5.7,6.7,10.1,6.7c0.2,0,0.4,0,0.6,0c0.3,0,0.5-0.3,0.5-0.5c0-0.3-0.3-0.5-0.5-0.5c-0.2,0-0.4,0-0.6,0c-4,0-7.6-2.4-9.2-6.1S1.3,7.8,4.2,5C7,2.1,11.3,1.3,15,2.8c3.7,1.5,6.1,5.1,6.1,9.1l-1-1c-0.2-0.2-0.5-0.2-0.7,0s-0.2,0.5,0,0.7l1.7,1.7c0.1,0.1,0.2,0.1,0.4,0.1s0.3-0.1,0.4-0.1l1.7-1.7C23.8,11.5,23.8,11.2,23.6,11z"/></svg>
